<svg width="392pt" height="540pt" viewBox="0.00 0.00 392.06 539.98" xmlns="http://www.w3.org/2000/svg" xmlns:xlink="http://www.w3.org/1999/xlink">
<g id="graph0" class="graph" transform="scale(1 1) rotate(0) translate(4 535.985)">
<title>G</title>
<polygon fill="white" stroke="none" points="-4,4 -4,-535.985 388.06,-535.985 388.06,4 -4,4"></polygon>
<text text-anchor="middle" x="192.03" y="-8.2" font-family="Times,serif" font-size="14.00">Invoice state machine</text>
<!-- SCR -->
<g id="node1" class="node"><title>SCR</title>
<ellipse fill="none" stroke="black" cx="123.139" cy="-493.074" rx="38.8208" ry="38.8208"></ellipse>
<text text-anchor="middle" x="123.139" y="-488.874" font-family="Times,serif" font-size="14.00">created</text>
</g>
<!-- SRV -->
<g id="node2" class="node"><title>SRV</title>
<ellipse fill="none" stroke="black" cx="46.1386" cy="-210.409" rx="42.2656" ry="42.2656"></ellipse>
<ellipse fill="none" stroke="black" cx="46.1386" cy="-210.409" rx="46.2777" ry="46.2777"></ellipse>
<text text-anchor="middle" x="46.1386" y="-206.209" font-family="Times,serif" font-size="14.00">revoked</text>
</g>
<!-- SCR&#45;&gt;SRV -->
<g id="edge3" class="edge"><title>SCR-&gt;SRV</title>
<path fill="none" stroke="black" d="M95.1078,-465.505C79.4739,-448.761 61.4182,-425.75 52.586,-401.364 36.8557,-357.932 36.4012,-305.198 39.2197,-266.323"></path>
<polygon fill="black" stroke="black" points="42.7166,-266.502 40.0451,-256.25 35.74,-265.93 42.7166,-266.502"></polygon>
<text text-anchor="middle" x="60.9149" y="-351.57" font-family="Times,serif" font-size="14.00">T3</text>
</g>
<!-- SRJ -->
<g id="node3" class="node"><title>SRJ</title>
<ellipse fill="none" stroke="black" cx="123.139" cy="-355.77" rx="41.6799" ry="41.6799"></ellipse>
<ellipse fill="none" stroke="black" cx="123.139" cy="-355.77" rx="45.6881" ry="45.6881"></ellipse>
<text text-anchor="middle" x="123.139" y="-351.57" font-family="Times,serif" font-size="14.00">rejected</text>
</g>
<!-- SCR&#45;&gt;SRJ -->
<g id="edge2" class="edge"><title>SCR-&gt;SRJ</title>
<path fill="none" stroke="black" d="M123.139,-454.024C123.139,-440.942 123.139,-426.02 123.139,-411.858"></path>
<polygon fill="black" stroke="black" points="126.639,-411.719 123.139,-401.719 119.639,-411.719 126.639,-411.719"></polygon>
<text text-anchor="middle" x="130.915" y="-423.564" font-family="Times,serif" font-size="14.00">T2</text>
</g>
<!-- SPN -->
<g id="node5" class="node"><title>SPN</title>
<ellipse fill="none" stroke="black" cx="229.139" cy="-355.77" rx="42.299" ry="42.299"></ellipse>
<text text-anchor="middle" x="229.139" y="-351.57" font-family="Times,serif" font-size="14.00">pending</text>
</g>
<!-- SCR&#45;&gt;SPN -->
<g id="edge1" class="edge"><title>SCR-&gt;SPN</title>
<path fill="none" stroke="black" d="M146.663,-462.046C161.525,-443.076 180.92,-418.319 197.168,-397.58"></path>
<polygon fill="black" stroke="black" points="200.042,-399.586 203.454,-389.556 194.531,-395.269 200.042,-399.586"></polygon>
<text text-anchor="middle" x="187.915" y="-423.564" font-family="Times,serif" font-size="14.00">T1</text>
</g>
<!-- SEP -->
<g id="node4" class="node"><title>SEP</title>
<ellipse fill="none" stroke="black" cx="155.139" cy="-210.409" rx="39.9882" ry="39.9882"></ellipse>
<ellipse fill="none" stroke="black" cx="155.139" cy="-210.409" rx="43.9876" ry="43.9876"></ellipse>
<text text-anchor="middle" x="155.139" y="-206.209" font-family="Times,serif" font-size="14.00">expired</text>
</g>
<!-- SPN&#45;&gt;SRV -->
<g id="edge7" class="edge"><title>SPN-&gt;SRV</title>
<path fill="none" stroke="black" d="M198.317,-326.85C191.768,-321.194 184.814,-315.387 178.139,-310.176 145.718,-284.867 134.949,-282.177 102.139,-257.376 97.8114,-254.105 93.353,-250.632 88.9303,-247.117"></path>
<polygon fill="black" stroke="black" points="91.0318,-244.316 81.0441,-240.781 86.6473,-249.773 91.0318,-244.316"></polygon>
<text text-anchor="middle" x="160.915" y="-279.576" font-family="Times,serif" font-size="14.00">T7</text>
</g>
<!-- SPN&#45;&gt;SEP -->
<g id="edge4" class="edge"><title>SPN-&gt;SEP</title>
<path fill="none" stroke="black" d="M210.082,-317.851C200.803,-299.874 189.537,-278.049 179.628,-258.852"></path>
<polygon fill="black" stroke="black" points="182.732,-257.236 175.035,-249.955 176.512,-260.447 182.732,-257.236"></polygon>
<text text-anchor="middle" x="204.915" y="-279.576" font-family="Times,serif" font-size="14.00">T4</text>
</g>
<!-- SAP -->
<g id="node6" class="node"><title>SAP</title>
<ellipse fill="none" stroke="black" cx="264.139" cy="-210.409" rx="46.9342" ry="46.9342"></ellipse>
<text text-anchor="middle" x="264.139" y="-206.209" font-family="Times,serif" font-size="14.00">approved</text>
</g>
<!-- SPN&#45;&gt;SAP -->
<g id="edge6" class="edge"><title>SPN-&gt;SAP</title>
<path fill="none" stroke="black" d="M225.582,-313.485C225.522,-301.073 226.477,-287.528 229.586,-275.376 230.935,-270.103 232.81,-264.791 234.996,-259.603"></path>
<polygon fill="black" stroke="black" points="238.214,-260.981 239.218,-250.434 231.856,-258.053 238.214,-260.981"></polygon>
<text text-anchor="middle" x="237.915" y="-279.576" font-family="Times,serif" font-size="14.00">T6</text>
</g>
<!-- SDL -->
<g id="node7" class="node"><title>SDL</title>
<ellipse fill="none" stroke="black" cx="341.139" cy="-67.7209" rx="38.8494" ry="38.8494"></ellipse>
<ellipse fill="none" stroke="black" cx="341.139" cy="-67.7209" rx="42.842" ry="42.842"></ellipse>
<text text-anchor="middle" x="341.139" y="-63.5209" font-family="Times,serif" font-size="14.00">deleted</text>
</g>
<!-- SPN&#45;&gt;SDL -->
<g id="edge5" class="edge"><title>SPN-&gt;SDL</title>
<path fill="none" stroke="black" d="M266.969,-337.012C296.487,-320.853 335.366,-293.936 353.139,-257.376 374.303,-213.84 367.095,-157.844 357.184,-118.199"></path>
<polygon fill="black" stroke="black" points="360.557,-117.265 354.621,-108.489 353.789,-119.052 360.557,-117.265"></polygon>
<text text-anchor="middle" x="373.915" y="-206.209" font-family="Times,serif" font-size="14.00">T5</text>
</g>
<!-- SAP&#45;&gt;SPN -->
<g id="edge9" class="edge"><title>SAP-&gt;SPN</title>
<path fill="none" stroke="black" d="M253.739,-256.303C250.987,-267.992 247.988,-280.565 245.139,-292.176 244.131,-296.281 243.074,-300.535 242.002,-304.803"></path>
<polygon fill="black" stroke="black" points="238.551,-304.176 239.496,-314.729 245.338,-305.89 238.551,-304.176"></polygon>
<text text-anchor="middle" x="256.915" y="-279.576" font-family="Times,serif" font-size="14.00">T9</text>
</g>
<!-- SAP&#45;&gt;SAP -->
<g id="edge8" class="edge"><title>SAP-&gt;SAP</title>
<path fill="none" stroke="black" d="M309.377,-223.724C320.667,-222.792 329.106,-218.354 329.106,-210.409 329.106,-205.071 325.296,-201.316 319.372,-199.144"></path>
<polygon fill="black" stroke="black" points="319.876,-195.674 309.377,-197.094 318.47,-202.532 319.876,-195.674"></polygon>
<text text-anchor="middle" x="336.882" y="-206.209" font-family="Times,serif" font-size="14.00">T8</text>
</g>
<!-- SAP&#45;&gt;SDL -->
<g id="edge10" class="edge"><title>SAP-&gt;SDL</title>
<path fill="none" stroke="black" d="M286.41,-168.716C295.639,-151.854 306.391,-132.21 315.909,-114.818"></path>
<polygon fill="black" stroke="black" points="319.029,-116.408 320.76,-105.955 312.888,-113.047 319.029,-116.408"></polygon>
<text text-anchor="middle" x="318.415" y="-132.842" font-family="Times,serif" font-size="14.00">T10</text>
</g>
</g>
</svg>