<?xml version="1.0" encoding="UTF-8" standalone="no"?><svg xmlns="http://www.w3.org/2000/svg" xmlns:xlink="http://www.w3.org/1999/xlink" contentScriptType="application/ecmascript" contentStyleType="text/css" height="690px" preserveAspectRatio="none" style="width:439px;height:690px;" version="1.1" viewBox="0 0 439 690" width="439px" zoomAndPan="magnify"><defs><filter height="300%" id="fh78qlm6vfn1y" width="300%" x="-1" y="-1"><feGaussianBlur result="blurOut" stdDeviation="2.0"/><feColorMatrix in="blurOut" result="blurOut2" type="matrix" values="0 0 0 0 0 0 0 0 0 0 0 0 0 0 0 0 0 0 .4 0"/><feOffset dx="4.0" dy="4.0" in="blurOut2" result="blurOut3"/><feBlend in="SourceGraphic" in2="blurOut3" mode="normal"/></filter></defs><g><text fill="#000000" font-family="sans-serif" font-size="18" lengthAdjust="spacingAndGlyphs" textLength="226" x="110" y="18.6855">State machine for an invoice</text><ellipse cx="310" cy="40.6406" fill="#000000" filter="url(#fh78qlm6vfn1y)" rx="10" ry="10" style="stroke: none; stroke-width: 1.0;"/><rect fill="#F8F8F8" filter="url(#fh78qlm6vfn1y)" height="50" rx="12.5" ry="12.5" style="stroke: #383838; stroke-width: 1.5;" width="71" x="274.5" y="111.6406"/><line style="stroke: #383838; stroke-width: 1.5;" x1="274.5" x2="345.5" y1="139.25" y2="139.25"/><text fill="#000000" font-family="sans-serif" font-size="14" lengthAdjust="spacingAndGlyphs" textLength="51" x="284.5" y="131.1738">Created</text><rect fill="#F8F8F8" filter="url(#fh78qlm6vfn1y)" height="50" rx="12.5" ry="12.5" style="stroke: #383838; stroke-width: 1.5;" width="72" x="168" y="239.6406"/><line style="stroke: #383838; stroke-width: 1.5;" x1="168" x2="240" y1="267.25" y2="267.25"/><text fill="#000000" font-family="sans-serif" font-size="14" lengthAdjust="spacingAndGlyphs" textLength="52" x="178" y="259.1738">Pending</text><rect fill="#F8F8F8" filter="url(#fh78qlm6vfn1y)" height="52.7031" rx="12.5" ry="12.5" style="stroke: #383838; stroke-width: 1.5;" width="81" x="346.5" y="319.6406"/><line style="stroke: #383838; stroke-width: 1.5;" x1="346.5" x2="427.5" y1="347.25" y2="347.25"/><text fill="#000000" font-family="sans-serif" font-size="14" lengthAdjust="spacingAndGlyphs" textLength="56" x="359" y="339.1738">Rejected</text><text fill="#000000" font-family="sans-serif" font-size="12" lengthAdjust="spacingAndGlyphs" textLength="61" x="351.5" y="364.707">- Problems</text><rect fill="#F8F8F8" filter="url(#fh78qlm6vfn1y)" height="50" rx="12.5" ry="12.5" style="stroke: #383838; stroke-width: 1.5;" width="76" x="259" y="411.6406"/><line style="stroke: #383838; stroke-width: 1.5;" x1="259" x2="335" y1="439.25" y2="439.25"/><text fill="#000000" font-family="sans-serif" font-size="14" lengthAdjust="spacingAndGlyphs" textLength="56" x="269" y="431.1738">Revoked</text><rect fill="#F8F8F8" filter="url(#fh78qlm6vfn1y)" height="50" rx="12.5" ry="12.5" style="stroke: #383838; stroke-width: 1.5;" width="69" x="173.5" y="548.6406"/><line style="stroke: #383838; stroke-width: 1.5;" x1="173.5" x2="242.5" y1="576.25" y2="576.25"/><text fill="#000000" font-family="sans-serif" font-size="14" lengthAdjust="spacingAndGlyphs" textLength="49" x="183.5" y="568.1738">Deleted</text><rect fill="#F8F8F8" filter="url(#fh78qlm6vfn1y)" height="67.7969" rx="12.5" ry="12.5" style="stroke: #383838; stroke-width: 1.5;" width="81" x="12.5" y="402.6406"/><line style="stroke: #383838; stroke-width: 1.5;" x1="12.5" x2="93.5" y1="430.25" y2="430.25"/><text fill="#000000" font-family="sans-serif" font-size="14" lengthAdjust="spacingAndGlyphs" textLength="61" x="22.5" y="422.1738">Approved</text><text fill="#000000" font-family="sans-serif" font-size="12" lengthAdjust="spacingAndGlyphs" textLength="49" x="17.5" y="447.707">- Amount</text><text fill="#000000" font-family="sans-serif" font-size="12" lengthAdjust="spacingAndGlyphs" textLength="30" x="17.5" y="462.8008">- Due</text><ellipse cx="297" cy="669.6406" fill="none" filter="url(#fh78qlm6vfn1y)" rx="10" ry="10" style="stroke: #000000; stroke-width: 1.0;"/><ellipse cx="297.5" cy="670.1406" fill="#000000" rx="6" ry="6" style="stroke: none; stroke-width: 1.0;"/><path d="M6,552.1406 L6,594.8438 A0,0 0 0 0 6,594.8438 L100,594.8438 A0,0 0 0 0 100,594.8438 L100,562.1406 L90,552.1406 L57,552.1406 L53,470.6656 L49,552.1406 L6,552.1406 A0,0 0 0 0 6,552.1406 " fill="#ECECEC" filter="url(#fh78qlm6vfn1y)" style="stroke: #383838; stroke-width: 1.0;"/><path d="M90,552.1406 L90,562.1406 L100,562.1406 L90,552.1406 " fill="#ECECEC" style="stroke: #383838; stroke-width: 1.0;"/><text fill="#000000" font-family="sans-serif" font-size="13" lengthAdjust="spacingAndGlyphs" textLength="65" x="12" y="570.6357">Final state.</text><text fill="#000000" font-family="sans-serif" font-size="13" lengthAdjust="spacingAndGlyphs" textLength="73" x="12" y="586.9873">Not verifiable</text><!--MD5=[fce0a99ff020773a13d941767c2fc94a]
link *start to Created--><path d="M310,50.6536 C310,63.3386 310,87.0496 310,106.2106 " fill="none" id="*start-&gt;Created" style="stroke: #383838; stroke-width: 1.0;"/><polygon fill="#383838" points="310,111.4806,314,102.4806,310,106.4806,306,102.4806,310,111.4806" style="stroke: #383838; stroke-width: 1.0;"/><!--MD5=[3f0745674f8c0a06950d94dddcf4b753]
link Created to Pending--><path d="M289.562,161.9346 C271.892,182.9386 246.337,213.3156 227.759,235.3986 " fill="none" id="Created-&gt;Pending" style="stroke: #383838; stroke-width: 1.0;"/><polygon fill="#383838" points="224.375,239.4216,233.2298,235.1098,227.5939,235.5956,227.1081,229.9596,224.375,239.4216" style="stroke: #383838; stroke-width: 1.0;"/><text fill="#000000" font-family="sans-serif" font-size="13" lengthAdjust="spacingAndGlyphs" textLength="14" x="265" y="206.1357">T1</text><!--MD5=[fc5774c8c38d542cc069ede0adfb1a38]
link Created to Rejected--><path d="M322.45,161.8056 C326.983,171.0256 331.978,181.7066 336,191.6406 C352.958,233.5186 368.745,283.3886 378.134,314.6636 " fill="none" id="Created-&gt;Rejected" style="stroke: #383838; stroke-width: 1.0;"/><polygon fill="#383838" points="379.586,319.5196,380.8424,309.7512,378.1548,314.7288,373.1772,312.0412,379.586,319.5196" style="stroke: #383838; stroke-width: 1.0;"/><text fill="#000000" font-family="sans-serif" font-size="13" lengthAdjust="spacingAndGlyphs" textLength="14" x="344" y="206.1357">T2</text><!--MD5=[db374afb9fc24a30f447be14d52c2f99]
link Created to Revoked--><path d="M308.947,161.7746 C306.583,215.9796 300.857,347.2286 298.287,406.1486 " fill="none" id="Created-&gt;Revoked" style="stroke: #383838; stroke-width: 1.0;"/><polygon fill="#383838" points="298.063,411.2816,302.4526,402.4651,298.2815,406.2864,294.4602,402.1154,298.063,411.2816" style="stroke: #383838; stroke-width: 1.0;"/><text fill="#000000" font-family="sans-serif" font-size="13" lengthAdjust="spacingAndGlyphs" textLength="14" x="307" y="270.1357">T3</text><!--MD5=[c007f2965fd6884da0c02fed0f44af42]
link Pending to Deleted--><path d="M204.314,289.7306 C205.038,345.3006 206.823,482.3306 207.613,542.9616 " fill="none" id="Pending-&gt;Deleted" style="stroke: #383838; stroke-width: 1.0;"/><polygon fill="#383838" points="207.682,548.2376,211.5634,539.1858,207.6163,543.2381,203.5641,539.291,207.682,548.2376" style="stroke: #383838; stroke-width: 1.0;"/><text fill="#000000" font-family="sans-serif" font-size="13" lengthAdjust="spacingAndGlyphs" textLength="14" x="208" y="442.1357">T4</text><!--MD5=[04ca4d4d55d6eebc932af56908e0a1d8]
link Pending to Approved--><path d="M167.716,272.2476 C139.695,279.2486 102.0874,293.1166 80,319.6406 C62.0265,341.2246 55.5251,372.5626 53.3818,397.2276 " fill="none" id="Pending-&gt;Approved" style="stroke: #383838; stroke-width: 1.0;"/><polygon fill="#383838" points="52.988,402.3836,57.6604,393.7137,53.368,397.3981,49.6836,393.1057,52.988,402.3836" style="stroke: #383838; stroke-width: 1.0;"/><text fill="#000000" font-family="sans-serif" font-size="13" lengthAdjust="spacingAndGlyphs" textLength="14" x="81" y="351.6357">T5</text><!--MD5=[62b761bba4284b55a928695957e497d9]
link Approved to Pending--><path d="M82.3746,402.5696 C110.449,370.9626 152.319,323.8246 178.883,293.9186 " fill="none" id="Approved-&gt;Pending" style="stroke: #383838; stroke-width: 1.0;"/><polygon fill="#383838" points="182.365,289.9976,173.398,294.0711,179.045,293.7362,179.3798,299.3832,182.365,289.9976" style="stroke: #383838; stroke-width: 1.0;"/><text fill="#000000" font-family="sans-serif" font-size="13" lengthAdjust="spacingAndGlyphs" textLength="14" x="157" y="351.6357">T8</text><!--MD5=[9289d2255e94429e8dbfc45ba02363b6]
link Pending to Revoked--><path d="M217.325,289.9976 C234.223,320.8866 263.318,374.0716 281.283,406.9116 " fill="none" id="Pending-&gt;Revoked" style="stroke: #383838; stroke-width: 1.0;"/><polygon fill="#383838" points="283.85,411.6036,283.0423,401.7879,281.4514,407.2165,276.0229,405.6256,283.85,411.6036" style="stroke: #383838; stroke-width: 1.0;"/><text fill="#000000" font-family="sans-serif" font-size="13" lengthAdjust="spacingAndGlyphs" textLength="14" x="263" y="351.6357">T6</text><!--MD5=[9932c1a420ba3b2dc202a8afe0d17eb2]
link Approved to Approved--><path d="M93.776,423.3786 C112.352,422.0246 128.5,426.4456 128.5,436.6406 C128.5,445.8806 115.238,450.3766 98.9253,450.1306 " fill="none" id="Approved-&gt;Approved" style="stroke: #383838; stroke-width: 1.0;"/><polygon fill="#383838" points="93.776,449.9026,102.5897,454.298,98.7711,450.1245,102.9446,446.3059,93.776,449.9026" style="stroke: #383838; stroke-width: 1.0;"/><text fill="#000000" font-family="sans-serif" font-size="13" lengthAdjust="spacingAndGlyphs" textLength="14" x="134.5" y="442.1357">T7</text><!--MD5=[76f4207c362d76a7b9cc216914620369]
link Approved to Deleted--><path d="M90.9173,470.6656 C117.12,493.4866 151.574,523.4956 176.313,545.0416 " fill="none" id="Approved-&gt;Deleted" style="stroke: #383838; stroke-width: 1.0;"/><polygon fill="#383838" points="180.197,548.4246,176.0384,539.4968,176.427,545.1403,170.7835,545.5289,180.197,548.4246" style="stroke: #383838; stroke-width: 1.0;"/><text fill="#000000" font-family="sans-serif" font-size="13" lengthAdjust="spacingAndGlyphs" textLength="14" x="146" y="515.1357">T9</text><!--MD5=[7b6d240f37457f759cf5835a10145692]
link Revoked to *end--><path d="M297,461.9246 C297,509.8416 297,615.2637 297,653.9943 " fill="none" id="Revoked-&gt;*end" style="stroke: #383838; stroke-width: 1.0;"/><polygon fill="#383838" points="297,659.2099,301,650.2099,297,654.2099,293,650.2099,297,659.2099" style="stroke: #383838; stroke-width: 1.0;"/><!--MD5=[96781a7a38a036c6627376748a1fb480]
link Deleted to *end--><path d="M230.92,598.8479 C248.998,617.9415 273.345,643.6568 286.87,657.9413 " fill="none" id="Deleted-&gt;*end" style="stroke: #383838; stroke-width: 1.0;"/><polygon fill="#383838" points="290.383,661.6521,287.0988,652.367,286.9449,658.0217,281.2902,657.8679,290.383,661.6521" style="stroke: #383838; stroke-width: 1.0;"/><!--MD5=[275b679d9522866ba41d4dbf575c856d]
link Rejected to *end--><path d="M384.373,372.6566 C378.477,423.3836 361.575,539.7586 323,629.6406 C318.748,639.5489 311.932,649.6481 306.346,657.0864 " fill="none" id="Rejected-&gt;*end" style="stroke: #383838; stroke-width: 1.0;"/><polygon fill="#383838" points="303.06,661.3484,311.7228,656.6627,306.1127,657.3885,305.3869,651.7784,303.06,661.3484" style="stroke: #383838; stroke-width: 1.0;"/><!--MD5=[7312d8a83626b3095a3d28711ca0bb41]
@startuml
skinparam monochrome true

Title State machine for an invoice

[*] - -> Created
Created - -> Pending : T1
Created - -> Rejected : T2
Created - -> Revoked : T3

Pending - -> Deleted : T4
Pending - -> Approved : T5
Pending - -> Revoked : T6

Approved - -> Approved : T7
Approved - -> Pending : T8
Approved - -> Deleted : T9

Revoked - -> [*]
Deleted - -> [*]
Rejected - -> [*]

Approved : - Amount\n- Due
Rejected : - Problems

note bottom of Approved
    Final state.
    Not verifiable
end note

@enduml

PlantUML version 1.2019.11(Sun Sep 22 12:02:15 CEST 2019)
(GPL source distribution)
Java Runtime: OpenJDK Runtime Environment
JVM: OpenJDK 64-Bit Server VM
Java Version: 11.0.3+12-b304.56
Operating System: Windows 10
Default Encoding: Cp1252
Language: en
Country: GB
--></g></svg>